<?xml version="1.0" encoding="UTF-8" standalone="no"?><!DOCTYPE svg PUBLIC "-//W3C//DTD SVG 1.1//EN" "http://www.w3.org/Graphics/SVG/1.1/DTD/svg11.dtd"><svg width="100%" height="100%" viewBox="0 0 1697 1689" version="1.1" xmlns="http://www.w3.org/2000/svg" xmlns:xlink="http://www.w3.org/1999/xlink" xml:space="preserve" xmlns:serif="http://www.serif.com/" style="fill-rule:evenodd;clip-rule:evenodd;stroke-linecap:round;stroke-linejoin:round;stroke-miterlimit:1.5;"><path d="M289.097,0.693c167.598,-0.774 986.758,1.109 1116.693,0c129.936,-1.109 288.118,189.422 286.235,341.955c-1.883,152.533 7.533,839.874 1.883,1052.667c-5.649,212.793 -280.586,292.135 -280.586,292.135c0,0 -950.827,1.456 -1081.846,0c-75.74,-0.842 -327.327,-113.238 -329.854,-352.395c-2.527,-239.157 0,-1015.005 0,-1063.966c0,-48.961 119.876,-269.622 287.474,-270.396Zm857.932,659.819c0.226,-0.324 0.23,-0.443 -0.004,-0.342l0.004,0.342Zm145.492,-240.656c-13.626,17.493 9.751,398.927 -0.921,522.924c-6.51,75.635 -137.168,40.694 -141.394,-1.266l-3.177,-281.002c-6.115,8.773 -174.58,167.657 -174.58,167.657l-245.55,252.304c0,0 -173.738,186.31 -199.175,250.02c-74.239,185.942 89.037,230.536 89.037,230.536c15.558,-3.536 630.233,22.695 736.302,3.766c210.282,-37.527 215.821,-165.444 215.821,-165.444c0,0 -14.327,-939.951 -6.794,-1056.705c7.533,-116.754 -160.066,-216.559 -160.066,-216.559c0,0 -976.204,-2.564 -1094.841,4.968c-118.637,7.533 -176.269,194.643 -176.269,194.643c-6.294,123.466 1.697,788.175 5.649,971.693c3.661,169.945 204.607,253.073 204.607,253.073c0,0 81.936,12.618 68.447,1.149c-40.341,-34.3 -53.289,-123.129 -45.555,-186.729c18.595,-152.91 671.986,-805.934 671.986,-805.934c27.515,-26.917 -280.82,0.9 -304.417,-14.81c-86.215,-57.395 3.766,-124.286 3.766,-124.286l557.124,0Z" style="fill:#2b7563;stroke:#000;stroke-width:1px;"/></svg>